<?xml version="1.0" encoding="utf-8" ?>
<svg baseProfile="tiny" height="100%" version="1.2" width="100%" xmlns="http://www.w3.org/2000/svg" xmlns:ev="http://www.w3.org/2001/xml-events" xmlns:xlink="http://www.w3.org/1999/xlink"><defs /><path d="M 406,178 L 405,179 L 403,179 L 402,180 L 400,180 L 399,181 L 398,181 L 396,183 L 395,183 L 393,185 L 392,185 L 386,191 L 386,192 L 382,196 L 382,197 L 380,199 L 380,200 L 378,202 L 378,203 L 376,205 L 376,206 L 375,207 L 375,208 L 374,209 L 374,210 L 373,211 L 373,212 L 372,213 L 372,214 L 371,215 L 371,216 L 370,217 L 370,219 L 369,220 L 369,221 L 368,222 L 368,224 L 367,225 L 367,227 L 366,228 L 366,230 L 365,231 L 365,232 L 364,233 L 364,234 L 363,235 L 362,235 L 361,234 L 361,233 L 360,232 L 360,231 L 359,230 L 359,229 L 358,228 L 358,227 L 357,226 L 357,225 L 356,224 L 356,223 L 355,222 L 355,221 L 354,220 L 354,219 L 353,218 L 353,217 L 352,216 L 352,215 L 349,212 L 349,211 L 341,203 L 340,203 L 338,201 L 336,201 L 335,200 L 326,200 L 325,201 L 323,201 L 319,205 L 319,206 L 318,207 L 318,208 L 317,209 L 317,211 L 316,212 L 316,213 L 315,214 L 315,220 L 314,221 L 314,233 L 315,234 L 315,241 L 316,242 L 316,246 L 317,247 L 317,251 L 318,252 L 318,255 L 319,256 L 319,259 L 320,260 L 320,263 L 321,264 L 321,266 L 322,267 L 322,270 L 323,271 L 323,273 L 324,274 L 324,277 L 325,278 L 325,280 L 326,281 L 326,283 L 327,284 L 327,286 L 328,287 L 328,289 L 329,290 L 329,292 L 330,293 L 330,294 L 331,295 L 331,297 L 332,298 L 332,300 L 333,301 L 333,302 L 334,303 L 334,305 L 335,306 L 335,308 L 336,309 L 336,310 L 337,311 L 337,312 L 338,313 L 338,315 L 339,316 L 339,317 L 340,318 L 340,319 L 341,320 L 341,321 L 342,322 L 342,324 L 343,325 L 343,333 L 342,334 L 342,335 L 340,337 L 340,338 L 339,339 L 339,340 L 338,341 L 338,342 L 333,347 L 333,348 L 332,349 L 332,352 L 331,353 L 331,355 L 332,356 L 332,357 L 334,359 L 337,359 L 338,360 L 340,360 L 344,356 L 344,355 L 345,354 L 345,353 L 346,352 L 346,351 L 347,350 L 347,349 L 348,348 L 348,347 L 349,346 L 349,345 L 350,344 L 351,344 L 352,345 L 353,345 L 354,346 L 355,346 L 356,345 L 357,345 L 358,344 L 359,344 L 360,343 L 361,343 L 362,342 L 363,342 L 363,339 L 362,338 L 362,335 L 361,334 L 361,333 L 360,332 L 360,327 L 361,326 L 361,325 L 362,324 L 362,323 L 363,322 L 363,321 L 364,320 L 364,319 L 366,317 L 366,316 L 367,315 L 367,314 L 368,313 L 368,312 L 369,311 L 369,310 L 371,308 L 371,307 L 372,306 L 372,305 L 374,303 L 374,301 L 376,299 L 376,298 L 377,297 L 377,296 L 378,295 L 378,294 L 380,292 L 380,291 L 381,290 L 381,289 L 383,287 L 383,286 L 384,285 L 384,284 L 385,283 L 385,282 L 386,281 L 386,280 L 388,278 L 388,277 L 389,276 L 389,275 L 390,274 L 390,273 L 391,272 L 391,271 L 392,270 L 392,269 L 394,267 L 394,266 L 395,265 L 395,264 L 396,263 L 396,262 L 397,261 L 397,260 L 398,259 L 398,258 L 399,257 L 399,256 L 400,255 L 400,254 L 402,252 L 402,251 L 403,250 L 403,249 L 404,248 L 404,247 L 405,246 L 405,245 L 406,244 L 406,243 L 407,242 L 407,241 L 408,240 L 408,239 L 409,238 L 409,237 L 410,236 L 410,235 L 411,234 L 411,233 L 412,232 L 412,231 L 413,230 L 413,229 L 414,228 L 414,226 L 415,225 L 415,224 L 416,223 L 416,222 L 417,221 L 417,219 L 418,218 L 418,217 L 419,216 L 419,214 L 420,213 L 420,210 L 421,209 L 421,207 L 422,206 L 422,201 L 423,200 L 423,188 L 422,187 L 422,184 L 417,179 L 416,179 L 415,178 Z" fill="black" /></svg>